<svg width="127" height="61" fill="none" xmlns="http://www.w3.org/2000/svg"><path d="M113.034 50.418l-4.609-4.609-4.609 4.61 4.609 9.608 4.609-9.609z" fill="#ED5339"/><path d="M108.309 25.777a3.203 3.203 0 100-6.405 3.203 3.203 0 000 6.405z" fill="#C4936A"/><path d="M108.538 4.54c-.937.47-13.749 7.266-13.749 17.968 0 9.218 7.499 23.123 7.499 23.123l6.25-6.25 6.25 6.25s7.499-13.983 7.499-23.123c0-10.702-12.733-17.499-13.749-17.967zm4.14 30.701l-4.14-4.14-4.14 4.14c-.235-.546-2.969-8.046-2.969-12.89 0-6.561 6.562-10.233 7.031-10.467.469.234 7.031 3.906 7.031 10.468.156 4.921-2.656 12.343-2.813 12.89zm13.889-30.519L121.872.027l-4.696 4.695 4.696 4.695 4.695-4.695z" fill="#C4936A"/><path d="M79.036 9.054c0 .938-.469 1.485-1.172 1.485-.78 0-1.171-.547-1.171-1.485h-3.828c.078 2.813 1.718 4.766 5.078 4.766 3.124 0 4.843-1.953 5-4.766h-3.907zM70.93 28.216v-13.28h4.453v6.171c0 .469-.078.938-.078.938h.156l4.844-7.187H84.6v13.28h-4.453v-6.25c0-.468.079-.859.079-.859h-.157l-4.921 7.187H70.93zm-9.422-14.003c4.219 0 7.422 2.969 7.422 7.03 0 3.985-3.125 6.953-7.422 6.953-4.218 0-7.343-2.968-7.343-6.952 0-4.063 3.125-7.031 7.343-7.031zm0 9.843c1.64 0 2.656-1.25 2.656-2.812 0-1.64-1.093-2.89-2.656-2.89-1.562 0-2.656 1.25-2.656 2.89-.078 1.562 1.094 2.812 2.656 2.812zm-12.645-9.198s-3.75 4.843-3.906 5c-.156.234-.234.312-.234.312h-.156s0-.156-.235-.313c-.156-.312-4.062-5-4.062-5h-3.515v13.281h4.296v-5.546c0-.625-.078-.938-.078-.938h.157l3.437 3.984h.234l3.203-3.984h.156s-.078.39-.078.938v5.546h4.297v-13.28h-3.516zM7.968 31.15c-2.265 0-4.609 1.25-5.468 3.125h-.156c.078-.156.156-.39.156-.547.234-2.89 1.328-5.155 3.593-5.937 1.406-.468 2.813-.703 3.828-.937 1.094-.235 2.266-.547 2.969-.703l-.782-2.266c-1.25.313-2.421.625-4.296 1.016-.781.156-1.719.312-2.734.781C1.562 27.088 0 30.057 0 35.682c0 5.077 2.5 9.061 7.343 9.061 4.453 0 7.109-3.437 7.109-6.952.078-3.984-2.5-6.64-6.484-6.64zm-.625 11.328c-2.968 0-4.687-2.735-4.687-5.86.703-1.796 2.89-3.28 4.765-3.28 2.656 0 4.375 1.64 4.375 4.53 0 2.735-1.953 4.61-4.453 4.61zm11.434-1.969h-.157a2.81 2.81 0 00.157-.86v-8.67H16.12v13.28h2.343l7.578-9.53h.156a2.806 2.806 0 00-.156.858v8.672h2.656v-13.28h-2.344l-7.577 9.53zm20.455-3.301c1.562-.625 2.344-1.64 2.344-3.203 0-2.187-1.797-3.671-5-3.671-1.797 0-3.75.546-5.39 1.718l1.015 1.875c1.172-.937 2.734-1.406 3.984-1.406 1.719 0 2.656.703 2.656 1.875 0 1.093-.859 1.797-2.187 1.797h-2.11v2.03h2.345c1.64 0 2.421.547 2.421 1.641 0 1.328-1.328 2.188-3.28 2.188-1.407 0-3.047-.626-4.063-1.485l-1.016 1.875c1.172 1.016 3.125 1.797 5.469 1.797 3.203 0 5.624-1.64 5.624-4.14-.078-1.407-1.015-2.657-2.812-2.89zm14.381-.761h-7.11v-5.469h-2.655v13.28h2.656v-5.78h7.109v5.78h2.656v-13.28h-2.656v5.469zm10.905-5.469c-3.906 0-6.484 3.047-6.484 7.11 0 3.983 2.578 6.952 7.187 6.952 2.265 0 4.14-.703 5.546-1.797l-1.015-1.875a7.323 7.323 0 01-4.375 1.484c-2.89 0-4.296-1.562-4.53-3.905h10.155c0-.235.078-.547.078-.86-.078-4.062-2.031-7.109-6.562-7.109zm-3.672 5.86c.313-2.032 1.875-3.672 3.828-3.672 2.422 0 3.593 1.64 3.75 3.671h-7.578zm19.44 5.37c-2.734 0-4.687-2.031-4.687-4.922 0-2.5 1.562-4.609 4.53-4.609 1.329 0 2.735.39 4.22 1.328 0 0 .702-1.25 1.093-1.953a9.41 9.41 0 00-5.39-1.718c-4.297 0-7.187 2.968-7.187 7.03 0 3.906 2.89 7.031 7.187 7.031 2.109 0 3.984-.625 5.39-1.719l-1.016-1.874a6.93 6.93 0 01-4.14 1.406zM60.32 54.23h1.015c.078-1.25.39-2.188.937-2.891.547-.703 1.25-1.016 2.11-1.016.546 0 1.015.078 1.405.313.391.234.704.546.938.937.234.39.469.938.547 1.484.078.547.156 1.25.156 1.953 0 1.485-.234 2.656-.781 3.516-.547.78-1.25 1.25-2.344 1.25-.468 0-.859-.079-1.25-.313-.39-.156-.703-.469-.937-.781-.234-.313-.469-.781-.625-1.25-.156-.469-.234-1.016-.313-1.64h-1.015v3.827h-1.484v-9.062h1.484v3.672h.156zm2.499.858c0 .47 0 .86.078 1.25s.156.703.235 1.016c.078.312.312.468.468.625.157.156.469.234.703.234.547 0 .938-.234 1.172-.703.234-.469.39-1.328.39-2.422 0-.468 0-.859-.078-1.25-.078-.39-.156-.703-.234-1.015-.078-.313-.234-.547-.468-.703a1.32 1.32 0 00-.782-.234c-.546 0-.937.234-1.171.78-.235.548-.313 1.329-.313 2.422zm9.907-3.202h-2.89v7.499H68.35v-9.062h4.375v1.563zm.784-1.329c.312-.078.625-.156 1.015-.156.39 0 .703-.078 1.094-.078.39 0 .781 0 1.094.078.39.078.703.235 1.015.469.313.234.547.547.703.937.157.391.313.938.313 1.563 0 .547-.078 1.015-.235 1.484a2.81 2.81 0 01-.625.938c-.234.234-.546.468-.937.546a4.612 4.612 0 01-1.094.157h-.781v3.124h-1.484v-9.062h-.078zm2.187 1.328h-.39c-.079 0-.235 0-.313.079v2.968h.625c.156 0 .39 0 .547-.078.156-.078.39-.156.547-.234.156-.078.234-.313.39-.469.078-.234.157-.469.157-.781 0-.313-.079-.547-.157-.703-.078-.157-.234-.313-.312-.469l-.469-.234c-.156-.078-.469-.078-.625-.078zm6.701 5.547h-2.343l-.547 2.031h-1.485l2.735-9.14h1.093l2.734 9.14h-1.562l-.625-2.031zm-1.953-1.484h1.64l-.546-2.031-.235-1.407h-.078l-.234 1.407-.547 2.03z" fill="#562312"/></svg>