<svg width="599" height="144" fill="none" xmlns="http://www.w3.org/2000/svg"><path fill-rule="evenodd" clip-rule="evenodd" d="M317.267 69.912h9.581s-9.258-7.173-5.167-12.633c4.091-5.46 11.519-6.21 10.335 0-1.615 5.674-2.153 6.424-2.153 6.424l6.459 2.89s-2.476-5.674 1.077-7.815c4.844-2.784 9.15.963 9.15.963l2.046-7.708c-2.584.963-6.46 2.57-9.905-.428 0 0-6.997-5.46.108-11.563 7.105-6.103 15.933-.857 16.687 7.815.861 8.78-8.397 15.953-8.397 15.953l8.612 5.032s.431-7.28 4.091-8.78c4.414-1.82 11.842 6.317 12.596 6.96l2.907-8.458s-12.058-3.64-11.95-8.458c.215-4.818 10.335-4.497 10.335-4.497l-3.122-10.064s-9.151 8.565-12.381 2.998c-3.983-7.388 9.151-11.135 9.151-11.135l-7.213-7.708s-8.182 13.061-13.565 7.601c-5.275-5.46 7.967-13.383 7.967-13.383l-7.859-7.066s-4.199 13.276-9.904 10.385c-6.567-3.854 1.292-14.132 1.292-14.132l-9.797-2.89s1.507 12.097-4.414 11.776C317.052 11.777 316.729 0 316.729 0l-8.075 3.426s6.675 6.745 5.276 10.706c-1.4 3.962-7.321 5.782-7.321 5.782l4.629 8.137s6.998-8.78 13.78-9.85c7.213-1.285 16.795 9.635 7.321 18.629-5.921 4.818-11.735-1.5-11.627-5.567 0-2.463 1.184-5.568 1.184-5.568l-6.998 2.463s3.015 4.39 0 8.458c-2.906 3.533-7.32 1.284-7.32 1.284l2.799 6.531s3.768-1.927 6.998-2.355c5.49-.75 4.629 6.317-1.185 9.85-5.382 3.64-12.057-4.604-12.057-4.604v9.636c3.445-.107 7.751 1.391 10.765 5.46 1.615 2.141 2.154 5.246 2.369 7.494zm8.397-25.909c1.292-1.392 3.445-1.392 4.845 0 1.291 1.392 1.399 3.533 0 4.925-1.292 1.392-3.445 1.392-4.845 0-1.292-1.285-1.292-3.533 0-4.925z" fill="#00993D"/><path fill-rule="evenodd" clip-rule="evenodd" d="M290.781 69.912h-9.582s9.259-7.173 5.168-12.633c-4.091-5.46-11.519-6.21-10.335 0 1.615 5.674 2.153 6.424 2.153 6.424l-6.46 2.89s2.477-5.674-1.076-7.815c-4.845-2.784-9.151.963-9.151.963l-2.045-7.708c2.583.963 6.459 2.57 9.904-.428 0 0 6.998-5.46-.108-11.563-7.105-6.103-15.933-.857-16.686 7.815-.862 8.78 8.397 15.953 8.397 15.953l-8.613 5.032s-.43-7.28-4.091-8.78c-4.413-1.82-11.842 6.317-12.595 6.96l-2.907-8.458s12.057-3.64 11.95-8.458c-.216-4.818-10.335-4.497-10.335-4.497l3.122-10.064s9.151 8.565 12.38 2.998c3.984-7.388-9.151-11.135-9.151-11.135l7.213-7.708s8.182 13.061 13.565 7.601c5.275-5.46-7.966-13.383-7.966-13.383l7.966-7.28s4.199 13.276 9.905 10.385c6.567-3.854-1.292-14.132-1.292-14.132L279.907 0s-1.507 12.098 4.414 11.777c6.567 0 6.998-11.777 6.998-11.777l8.074 3.426s-6.675 6.745-5.275 10.706c1.4 3.962 7.321 5.782 7.321 5.782l-4.63 8.137s-6.997-8.78-13.78-9.85c-7.213-1.285-16.794 9.635-7.32 18.629 5.921 4.818 11.734-1.5 11.627-5.567 0-2.463-1.185-5.568-1.185-5.568l6.998 2.463s-3.014 4.39 0 8.458c2.907 3.533 7.321 1.284 7.321 1.284l-2.799 6.531s-3.768-1.927-6.998-2.355c-5.49-.75-4.629 6.317 1.184 9.85 5.383 3.64 12.058-4.604 12.058-4.604v9.636c-3.445-.107-7.752 1.391-10.766 5.46-1.722 2.141-2.261 5.246-2.368 7.494zm-8.505-25.909c-1.292-1.392-3.445-1.392-4.845 0-1.292 1.392-1.399 3.533 0 4.925 1.292 1.392 3.445 1.392 4.845 0 1.292-1.285 1.399-3.533 0-4.925z" fill="#009DE2"/><path fill-rule="evenodd" clip-rule="evenodd" d="M290.781 69.912h-9.582s9.259 7.173 5.168 12.634c-4.091 5.46-11.519 6.21-10.335 0 1.615-5.675 2.153-6.424 2.153-6.424l-6.459-2.89s2.476 5.674-1.077 7.815c-4.845 2.784-9.151-.964-9.151-.964l-2.045 7.709c2.583-.964 6.459-2.57 9.904.428 0 0 6.998 5.46-.108 11.563-7.105 6.102-15.933.856-16.686-7.816-.862-8.779 8.397-15.952 8.397-15.952l-8.613-5.032s-.43 7.28-4.091 8.78c-4.413 1.82-11.842-6.318-12.595-6.96l-2.907 8.458s12.057 3.64 11.95 8.458c-.216 4.818-10.335 4.497-10.335 4.497l3.122 10.064s9.151-8.566 12.38-2.998c3.984 7.387-9.151 11.134-9.151 11.134l7.213 7.709s8.182-13.062 13.565-7.602c5.275 5.461-7.966 13.383-7.966 13.383l7.966 7.281s4.199-13.276 9.905-10.386c6.567 3.855-1.292 14.133-1.292 14.133l9.796 2.891s-1.507-12.099 4.414-11.777c6.675.214 7.106 11.991 7.106 11.991l8.074-3.426s-6.675-6.745-5.275-10.707c1.399-3.961 7.32-5.781 7.32-5.781l-4.629-8.137s-6.998 8.779-13.78 9.85c-7.213 1.285-16.794-9.636-7.321-18.629 5.922-4.818 11.735 1.499 11.627 5.567 0 2.463-1.184 5.567-1.184 5.567l6.998-2.462s-3.015-4.39 0-8.458c2.906-3.533 7.32-1.285 7.32-1.285l-2.799-6.53s-3.768 1.926-6.997 2.355c-5.491.75-4.63-6.317 1.184-9.85 5.383-3.64 12.057 4.604 12.057 4.604V83.08c-3.445.107-7.751-1.392-10.765-5.46-1.83-2.463-2.369-5.46-2.476-7.709zm-8.505 25.91c-1.292 1.391-3.445 1.391-4.845 0-1.292-1.392-1.399-3.534 0-4.925 1.292-1.392 3.445-1.392 4.845 0 1.292 1.284 1.399 3.533 0 4.924z" fill="#DC0029"/><path fill-rule="evenodd" clip-rule="evenodd" d="M317.265 69.912h9.582s-9.259 7.173-5.168 12.634c4.091 5.46 11.519 6.21 10.335 0-1.615-5.675-2.153-6.424-2.153-6.424l6.459-2.89s-2.476 5.674 1.077 7.815c4.844 2.784 9.151-.964 9.151-.964l2.045 7.709c-2.584-.964-6.459-2.57-9.904.428 0 0-6.998 5.46.107 11.563 7.106 6.102 15.934.856 16.687-7.816.861-8.779-8.397-15.952-8.397-15.952l8.613-5.032s.43 7.28 4.091 8.78c4.413 1.82 11.842-6.318 12.595-6.96l2.907 8.458s-12.058 3.64-11.95 8.458c.215 4.818 10.335 4.497 10.335 4.497l-3.122 10.064s-9.151-8.566-12.38-2.998c-3.984 7.387 9.15 11.134 9.15 11.134l-7.213 7.709s-8.181-13.062-13.564-7.602c-5.275 5.461 7.966 13.383 7.966 13.383l-7.966 7.281s-4.199-13.276-9.905-10.386c-6.567 3.855 1.292 14.133 1.292 14.133l-9.797 2.891s1.508-12.099-4.413-11.777c-6.675.214-7.106 11.991-7.106 11.991l-8.074-3.426s6.675-6.745 5.275-10.707c-1.399-3.961-7.32-5.781-7.32-5.781l4.629-8.137s6.997 8.779 13.78 9.85c7.213 1.285 16.794-9.636 7.32-18.629-5.921-4.818-11.734 1.499-11.626 5.567 0 2.463 1.184 5.567 1.184 5.567l-6.998-2.462s3.014-4.39 0-8.458c-2.907-3.533-7.321-1.285-7.321-1.285l2.8-6.53s3.768 1.926 6.997 2.355c5.491.75 4.629-6.317-1.184-9.85-5.383-3.64-12.058 4.604-12.058 4.604V83.08c3.445.107 7.752-1.392 10.766-5.46 1.723-2.463 2.261-5.46 2.476-7.709zm8.397 25.91c1.292 1.391 3.445 1.391 4.845 0 1.292-1.392 1.399-3.534 0-4.925-1.292-1.392-3.445-1.392-4.845 0-1.291 1.284-1.291 3.533 0 4.924z" fill="#4F105B"/><path d="M577.039 139.717v-9.635h1.507v1.392c.754-1.071 1.723-1.606 3.122-1.606.538 0 1.077.107 1.615.321.538.214.861.535 1.076.856.216.322.431.75.539 1.178.107.321.107.857.107 1.606v5.888h-1.614v-5.888c0-.642-.108-1.178-.216-1.499-.107-.321-.323-.642-.646-.749-.323-.214-.753-.322-1.184-.322-.646 0-1.292.215-1.83.643-.538.428-.754 1.285-.754 2.462v5.246h-1.722v.107zm-9.366-4.817c0 1.284.323 2.141.861 2.783.538.643 1.184.964 2.045.964.862 0 1.508-.321 2.046-.964.538-.642.861-1.606.861-2.783 0-1.178-.323-2.142-.861-2.677-.538-.642-1.184-.964-2.046-.964-.861 0-1.507.322-2.045.964-.538.535-.861 1.392-.861 2.677zm-1.723 0c0-1.82.539-3.105 1.507-3.962.862-.749 1.831-1.07 3.015-1.07 1.292 0 2.368.428 3.23 1.284.861.857 1.291 2.035 1.291 3.641 0 1.284-.215 2.248-.538 2.89-.323.75-.969 1.285-1.615 1.606-.753.428-1.507.536-2.368.536-1.4 0-2.476-.429-3.338-1.285-.753-.75-1.184-2.034-1.184-3.64zm-3.445-4.818h1.615v9.635h-1.615v-9.635zm0-3.64h1.615v1.82h-1.615v-1.82zm-1.615 11.777l.216 1.391c-.431.107-.862.107-1.185.107-.645 0-1.076-.107-1.399-.321-.323-.214-.538-.428-.646-.749-.108-.321-.215-.964-.215-1.927v-5.568h-1.184v-1.284h1.184v-2.356l1.615-.963v3.319h1.614v1.284h-1.614v5.675c0 .428 0 .749.107.856.108.107.108.214.323.321.108.107.323.108.538.108.108.214.323.214.646.107zm-7.643 1.498v-1.391c-.754 1.07-1.723 1.606-3.015 1.606a4.32 4.32 0 01-1.614-.322 2.242 2.242 0 01-1.077-.856 3.941 3.941 0 01-.538-1.178c-.108-.321-.108-.856-.108-1.499v-5.995h1.615v5.353c0 .856 0 1.392.108 1.713.107.428.323.749.646.964.323.214.753.321 1.184.321.538 0 .969-.107 1.399-.429.431-.214.754-.642.969-1.07.215-.428.216-1.071.216-1.927v-5.139h1.614v9.635h-1.399v.214zm-7.967-1.498l.216 1.391c-.431.107-.862.107-1.185.107-.646 0-1.076-.107-1.399-.321-.323-.214-.538-.428-.646-.749-.108-.321-.215-.964-.215-1.927v-5.568h-1.185v-1.284h1.185v-2.356l1.614-.963v3.319h1.615v1.284h-1.615v5.675c0 .428 0 .749.108.856.108.107.108.214.323.321.108.107.323.108.538.108.108.214.323.214.646.107zm-7.751-8.137h1.615v9.635h-1.615v-9.635zm0-3.64h1.615v1.82h-1.615v-1.82zm-1.615 11.777l.215 1.391c-.43.107-.861.107-1.184.107-.646 0-1.076-.107-1.399-.321-.323-.214-.539-.428-.646-.749-.108-.321-.216-.964-.216-1.927v-5.568H531.5v-1.284h1.184v-2.356l1.615-.963v3.319h1.615v1.284h-1.615v5.675c0 .428 0 .749.108.856.108.107.108.214.323.321.108.107.323.108.538.108.108.214.323.214.646.107zm-13.565-1.392l1.615-.214c.108.642.323 1.177.754 1.499.43.321.969.535 1.722.535.754 0 1.292-.107 1.723-.428.323-.322.538-.643.538-1.071 0-.321-.215-.642-.538-.857-.215-.107-.754-.321-1.723-.535-1.184-.321-2.045-.535-2.476-.749-.43-.214-.861-.536-1.076-.964a2.827 2.827 0 01-.323-1.285c0-.428.107-.856.323-1.177.215-.322.43-.643.753-.964.216-.214.646-.321 1.077-.428.43-.107.861-.214 1.399-.214.754 0 1.4.107 2.046.321.538.214.969.535 1.292.856.323.429.43.857.538 1.499l-1.615.214c-.107-.535-.323-.856-.646-1.177-.323-.321-.861-.429-1.507-.429-.754 0-1.292.108-1.615.322-.323.214-.43.535-.43.856 0 .214.107.428.215.535.108.215.323.322.646.429.215.107.646.214 1.399.428 1.185.321 1.938.535 2.476.749.431.215.862.536 1.077.857.215.428.431.856.431 1.392 0 .535-.108 1.07-.431 1.499-.323.428-.754.856-1.399 1.07-.646.214-1.292.429-2.046.429-1.292 0-2.261-.215-2.907-.75-.646-.428-1.076-1.178-1.292-2.248zm-9.796 2.89v-9.635h1.507v1.392c.754-1.071 1.722-1.606 3.122-1.606.538 0 1.076.107 1.615.321.538.214.861.535 1.076.856.216.322.431.75.539 1.178.107.321.107.857.107 1.606v5.888h-1.615v-5.888c0-.642-.107-1.178-.215-1.499-.108-.321-.323-.642-.646-.749-.323-.214-.753-.322-1.184-.322-.646 0-1.292.215-1.83.643-.538.428-.754 1.285-.754 2.462v5.246h-1.722v.107zm-4.63-13.275h1.723v13.275h-1.723v-13.275zm-15.717 10.385l1.615-.214c.107.642.322 1.177.753 1.499.431.321.969.535 1.723.535.753 0 1.292-.107 1.722-.428.323-.322.538-.643.538-1.071 0-.321-.215-.642-.538-.857-.215-.107-.753-.321-1.722-.535-1.185-.321-2.046-.535-2.476-.749-.431-.214-.862-.536-1.077-.964a2.84 2.84 0 01-.323-1.285c0-.428.108-.856.323-1.177.215-.322.431-.643.861-.964.216-.214.646-.321 1.077-.428.43-.107.861-.214 1.399-.214.754 0 1.4.107 2.046.321.538.214.969.535 1.292.856.323.429.43.857.538 1.499l-1.615.214c-.108-.535-.323-.856-.646-1.177-.323-.321-.861-.429-1.507-.429-.754 0-1.292.108-1.615.322-.323.214-.431.535-.431.856 0 .214.108.428.216.535.107.215.323.322.646.429.215.107.646.214 1.399.428 1.185.321 1.938.535 2.476.749.431.215.862.536 1.077.857.215.428.431.856.431 1.392 0 .535-.108 1.07-.431 1.499-.323.428-.754.856-1.4 1.07-.646.214-1.291.429-2.045.429-1.292 0-2.261-.215-2.907-.75-.753-.428-1.184-1.178-1.399-2.248zm-3.445 2.89v-1.391c-.754 1.07-1.723 1.606-3.015 1.606a4.33 4.33 0 01-1.615-.322 2.244 2.244 0 01-1.076-.856 3.941 3.941 0 01-.538-1.178c-.108-.321-.108-.856-.108-1.499v-5.995h1.615v5.353c0 .856 0 1.392.107 1.713.108.428.323.749.646.964.323.214.754.321 1.185.321.43 0 .969-.107 1.399-.429.431-.214.754-.642.969-1.07.215-.428.215-1.071.215-1.927v-5.139h1.615v9.635h-1.399v.214zm-15.61-4.817c0 1.284.322 2.141.861 2.783.538.643 1.184.964 2.045.964.862 0 1.507-.321 2.046-.964.538-.642.861-1.606.861-2.783 0-1.178-.323-2.142-.861-2.677-.539-.642-1.184-.964-2.046-.964-.861 0-1.507.322-2.045.964-.646.535-.861 1.392-.861 2.677zm-1.723 0c0-1.82.538-3.105 1.507-3.962.861-.749 1.83-1.07 3.015-1.07 1.291 0 2.368.428 3.229 1.284.862.857 1.292 2.035 1.292 3.641 0 1.284-.215 2.248-.538 2.89-.323.75-.969 1.285-1.615 1.606-.754.428-1.507.536-2.368.536-1.4 0-2.477-.429-3.338-1.285-.753-.75-1.184-2.034-1.184-3.64zm-14.964 4.817v-9.635h1.507v1.392a6.145 6.145 0 011.184-1.178c.538-.321 1.077-.428 1.723-.428.753 0 1.292.107 1.722.428.431.321.754.749.969 1.285.754-1.178 1.723-1.713 3.014-1.713.969 0 1.723.214 2.261.749.539.535.754 1.392.754 2.463v6.637h-1.615v-6.102a4.19 4.19 0 00-.215-1.392 1.097 1.097 0 00-.539-.642c-.323-.214-.646-.214-.968-.214-.646 0-1.292.214-1.723.642-.431.428-.646 1.178-.646 2.141v5.567h-1.615v-6.209c0-.75-.107-1.285-.43-1.606-.216-.321-.754-.535-1.292-.535-.431 0-.862.107-1.292.321-.431.214-.646.642-.861 1.07-.216.429-.216 1.178-.216 2.035v5.032h-1.722v-.108zm-9.259-4.817c0 1.284.323 2.141.862 2.783.538.643 1.184.964 2.045.964s1.507-.321 2.046-.964c.538-.642.861-1.606.861-2.783 0-1.178-.323-2.142-.861-2.677-.539-.642-1.185-.964-2.046-.964-.861 0-1.507.322-2.045.964-.646.535-.862 1.392-.862 2.677zm-1.722 0c0-1.82.538-3.105 1.507-3.962.861-.749 1.83-1.07 3.014-1.07 1.292 0 2.369.428 3.23 1.284.861.857 1.292 2.035 1.292 3.641 0 1.284-.215 2.248-.538 2.89-.323.75-.969 1.285-1.615 1.606-.754.428-1.507.536-2.369.536-1.399 0-2.476-.429-3.337-1.285-.754-.75-1.184-2.034-1.184-3.64zm-9.797 4.817v-9.635h1.507v1.392c.754-1.071 1.723-1.606 3.122-1.606a4.34 4.34 0 011.615.321c.538.214.861.535 1.077.856.215.322.43.75.538 1.178.108.321.108.857.108 1.606v5.888h-1.615v-5.888c0-.642-.108-1.178-.215-1.499-.108-.321-.323-.642-.646-.749-.323-.214-.754-.322-1.185-.322-.646 0-1.291.215-1.83.643-.538.428-.753 1.285-.753 2.462v5.246h-1.723v.107zm-9.258-4.817c0 1.284.323 2.141.861 2.783.538.643 1.184.964 2.045.964.862 0 1.508-.321 2.046-.964.538-.642.861-1.606.861-2.783 0-1.178-.323-2.142-.861-2.677-.538-.642-1.184-.964-2.046-.964-.861 0-1.507.322-2.045.964-.646.535-.861 1.392-.861 2.677zm-1.723 0c0-1.82.538-3.105 1.507-3.962.862-.749 1.831-1.07 3.015-1.07 1.292 0 2.368.428 3.229 1.284.862.857 1.292 2.035 1.292 3.641 0 1.284-.215 2.248-.538 2.89-.323.75-.969 1.285-1.615 1.606-.753.428-1.507.536-2.368.536-1.4 0-2.476-.429-3.338-1.285-.753-.75-1.184-2.034-1.184-3.64zm-.969 3.319l.216 1.391c-.431.107-.862.107-1.185.107-.646 0-1.076-.107-1.399-.321-.323-.214-.538-.428-.646-.749-.108-.321-.215-.964-.215-1.927v-5.568h-1.185v-1.284h1.185v-2.356l1.614-.963v3.319h1.615v1.284h-1.722v5.675c0 .428 0 .749.107.856.108.107.108.214.323.321.108.107.323.108.539.108.215.214.43.214.753.107zm-7.643 1.498v-1.391c-.754 1.07-1.723 1.606-3.122 1.606a4.321 4.321 0 01-1.615-.322 2.252 2.252 0 01-1.077-.856 3.966 3.966 0 01-.538-1.178c-.108-.321-.108-.856-.108-1.499v-5.995h1.615v5.353c0 .856 0 1.392.108 1.713.107.428.323.749.646.964.323.214.753.321 1.184.321.538 0 .969-.107 1.399-.429.431-.214.754-.642.969-1.07.216-.428.216-1.071.216-1.927v-5.139h1.615v9.635h-1.292v.214zm-16.256-5.46h4.521l-1.399-3.64a29.165 29.165 0 01-.969-2.784c-.216.857-.431 1.713-.754 2.57l-1.399 3.854zm-3.876 5.46l5.167-13.275h1.938l5.491 13.275h-2.046l-1.507-4.068h-5.598l-1.4 4.068h-2.045zm-188.83-5.674c.107-1.178.861-2.784 2.691-2.784 1.938 0 2.369 1.713 2.369 2.784h-5.06zm6.675 1.285c0-.214.107-.428.107-.75 0-1.713-.861-4.496-3.875-4.496-2.8 0-4.414 2.248-4.414 5.139 0 2.89 1.722 4.711 4.629 4.711 1.507 0 2.584-.322 3.122-.536l-.323-1.177c-.646.321-1.4.535-2.584.535-1.722 0-3.23-.964-3.23-3.319h6.568v-.107zm-18.517-5.032v9.421h1.937c.969-1.713 2.046-3.426 3.015-4.924.538-.964.969-1.713 1.615-2.891h.107c-.107 1.499-.107 2.355-.107 3.854v3.961h1.615v-9.421h-2.154l-3.014 4.925c-.646 1.07-.969 1.713-1.507 2.89h-.108c.108-1.391.108-2.248.108-3.747v-3.961h-1.507v-.107zm-10.766 0v9.421h1.722v-4.282h4.522v4.282h1.723v-9.421h-1.723v3.854h-4.522v-3.854h-1.722zm-8.828 3.747c.108-1.178.861-2.784 2.692-2.784 1.937 0 2.368 1.713 2.368 2.784h-5.06zm6.675 1.285c0-.214.108-.428.108-.75 0-1.713-.862-4.496-3.876-4.496-2.799 0-4.414 2.248-4.414 5.139 0 2.89 1.722 4.711 4.629 4.711 1.507 0 2.584-.322 3.122-.536l-.323-1.177c-.646.321-1.399.535-2.583.535-1.723 0-3.23-.964-3.23-3.319h6.567v-.107zm-15.395-3.747h3.122v6.852h-4.414c.323-.536.538-1.071.754-1.713.323-1.071.538-2.249.538-3.533v-1.606zm-1.507-1.285v2.462c0 1.285-.215 2.57-.538 3.748a8.157 8.157 0 01-.969 1.927h-.754l.108 4.282h1.399l.108-2.998h6.567l.108 2.998h1.399l.108-4.282h-.969v-8.137h-6.567zm-15.826 0l3.768 4.282c-1.399.107-2.26.964-2.906 2.57-.323.856-.646 1.927-1.077 2.677h1.723c.322-.536.538-1.285.861-2.142.538-1.499 1.399-2.034 2.691-2.034h.323v4.176h1.615v-4.176h.323c1.184 0 2.153.428 2.691 2.034.323.857.539 1.606.862 2.142h1.722c-.43-.75-.753-1.714-1.076-2.677-.539-1.499-1.4-2.355-2.799-2.463l3.767-4.282h-1.937l-3.122 4.068h-.323v-4.068h-1.615v4.068h-.323l-3.122-4.068h-2.046v-.107zm-7.643 3.747c.107-1.178.861-2.784 2.691-2.784 1.938 0 2.369 1.713 2.369 2.784h-5.06zm6.674 1.285c0-.214.108-.428.108-.75 0-1.713-.861-4.496-3.876-4.496-2.799 0-4.413 2.248-4.413 5.139 0 2.89 1.722 4.711 4.629 4.711 1.507 0 2.584-.322 3.122-.536l-.323-1.177c-.646.321-1.4.535-2.584.535-1.722 0-3.23-.964-3.23-3.319h6.567v-.107zm-17.117-1.071c0-.214.108-.535.108-.749.323-1.285 1.399-2.141 2.583-2.141 1.831 0 2.8 1.605 2.8 3.533 0 2.141-1.077 3.64-2.907 3.64-1.184 0-2.261-.857-2.584-2.034 0-.215-.108-.429-.108-.75v-1.499h.108zm-1.722 9.315h1.722v-5.139c.538.963 1.615 1.499 2.907 1.499 2.261 0 4.306-1.713 4.306-5.032 0-2.891-1.722-4.818-3.983-4.818-1.507 0-2.692.642-3.338 1.82l-.107-1.606h-1.507c0 .856.107 1.927.107 3.105v10.171h-.107zm-10.228-13.276v3.319c0 2.141 1.292 3.105 3.122 3.105.862 0 1.938-.322 2.584-.75v3.747h1.723v-9.421h-1.723v4.497c-.538.428-1.292.642-2.045.642-1.508 0-1.938-.857-1.938-2.034v-3.105h-1.723zm-10.335 0l3.553 8.672a.803.803 0 01.108.428c0 .107-.108.214-.108.429a7.494 7.494 0 01-1.4 1.927c-.538.428-1.076.749-1.507.856l.431 1.392c.43-.107 1.292-.321 2.153-1.071 1.184-.963 2.045-2.676 3.23-5.888l2.583-6.745h-1.83l-1.938 5.567c-.215.643-.43 1.392-.646 1.927-.107-.535-.43-1.284-.646-1.927l-2.045-5.567h-1.938zm-11.734 3.747c.107-1.178.86-2.784 2.691-2.784 1.938 0 2.369 1.713 2.369 2.784h-5.06zm6.567 1.285c0-.214.107-.428.107-.75 0-1.713-.861-4.496-3.875-4.496-2.8 0-4.414 2.248-4.414 5.139 0 2.89 1.722 4.711 4.629 4.711 1.507 0 2.584-.322 3.122-.536l-.323-1.285c-.646.322-1.399.536-2.584.536-1.722 0-3.23-.964-3.23-3.319h6.568zm-14.319-3.961c2.046 0 2.8 2.034 2.8 3.64 0 2.141-1.185 3.64-2.907 3.64-1.723 0-2.907-1.606-2.907-3.64 0-1.82.969-3.64 3.014-3.64zm0-1.285c-2.583 0-4.736 1.82-4.736 5.032 0 2.997 1.937 4.818 4.521 4.818 2.26 0 4.737-1.499 4.737-5.032 0-2.891-1.83-4.818-4.522-4.818zm-14.748.214v9.421h1.722v-4.282h4.522v4.282h1.614v-9.421h-1.722v3.854H76.65v-3.854h-1.614zm-13.135 9.421h1.615l.216-4.496c.107-1.071.107-2.249.107-3.426h.108c.215.856.646 2.248.969 3.105l1.722 4.71h1.184l1.83-4.71c.539-1.499.754-2.249 1.077-3.105h.108c0 1.177.108 2.355.215 3.426l.216 4.496h1.614l-.646-9.421h-2.153l-1.507 4.068c-.323 1.071-.861 2.57-1.076 3.212-.216-.749-.646-1.927-.862-2.569l-1.722-4.711h-2.153l-.862 9.421zm-6.244-8.35c2.046 0 2.8 2.034 2.8 3.64 0 2.141-1.185 3.64-2.907 3.64-1.723 0-2.907-1.606-2.907-3.64.108-1.82.969-3.64 3.014-3.64zm.108-1.285c-2.584 0-4.737 1.82-4.737 5.032 0 2.997 1.938 4.818 4.522 4.818 2.26 0 4.737-1.499 4.737-5.032 0-2.891-1.83-4.818-4.522-4.818zm-14.749.214v9.421h1.723v-4.282h4.521v4.282h1.723v-9.421H47.26v3.854h-4.52v-3.854h-1.723zm-6.782 1.071c2.045 0 2.799 2.034 2.799 3.64 0 2.141-1.184 3.64-2.907 3.64-1.722 0-2.907-1.606-2.907-3.64.108-1.82.97-3.64 3.015-3.64zm0-1.285c-2.584 0-4.737 1.82-4.737 5.032 0 2.997 1.938 4.818 4.521 4.818 2.261 0 4.737-1.499 4.737-5.032.108-2.891-1.722-4.818-4.521-4.818zm-12.919.214v1.392h3.014v8.029h1.723v-8.029h3.014v-1.392h-7.751zm-6.782 5.032h1.291c1.615 0 3.015.321 3.015 1.606 0 1.392-1.723 1.606-2.907 1.606-.538 0-.861 0-1.4-.107v-3.105zm0-3.854c.43 0 .753-.107 1.291-.107 1.723 0 2.584.428 2.584 1.391 0 1.071-1.292 1.499-2.583 1.499h-1.292v-2.783zm-1.615 8.243c.538 0 1.615.108 2.691.108 1.83 0 4.952-.322 4.952-2.784 0-1.392-.969-2.141-2.368-2.356 1.076-.214 1.938-.963 1.938-2.141 0-2.141-2.584-2.355-4.199-2.355-1.076 0-2.368.107-3.014.214v9.314zm-9.474-5.46l1.292-3.854c.215-.749.43-1.606.646-2.355.215.749.43 1.498.646 2.355l1.292 3.747H3.445v.107zm4.414 1.285l1.4 4.175h1.83l-4.522-13.168H4.522L0 139.717h1.722l1.4-4.175h4.737z" fill="#B0B1B2"/><path d="M149.965 105.564c0-.749-.108-1.499-.215-2.034-.108-.535-.323-.856-.539-1.071-.215-.214-.646-.428-1.184-.535a10.907 10.907 0 00-2.045-.214h-7.321c-.754 0-1.507.107-2.046.214-.538.107-.968.321-1.291.642-.323.215-.539.643-.646 1.071a9.523 9.523 0 00-.216 1.927v5.353c0 1.499.323 2.463.862 2.998.323.214.646.428 1.184.535.538.108 1.292.215 2.045.215h7.321c.861 0 1.615-.107 2.153-.215.538-.107.861-.321 1.184-.535.216-.214.431-.535.539-1.07a9.612 9.612 0 00.215-1.928v-5.353zm2.261 5.353c0 2.356-.539 3.962-1.4 4.818-.431.429-1.076.643-1.938.857-.753.214-1.83.321-2.906.321h-7.321c-1.184 0-2.153-.107-3.014-.321-.862-.214-1.508-.536-2.046-.964-.969-.856-1.507-2.462-1.507-4.711v-1.713h-4.199v7.709h-2.261V99.676h2.261v7.28h4.199v-1.178c0-2.248.431-3.854 1.399-4.817.539-.536 1.185-.857 2.046-1.071.861-.214 1.83-.321 3.014-.321h7.321c2.261 0 3.768.428 4.737 1.177.538.429.969 1.178 1.184 2.035.215.856.431 1.82.431 2.997v5.139zm2.26 5.675V99.676h14.965v2.248h-12.596v14.989h-2.261v-.321h-.108zm17.118 0V99.676h11.519c1.077 0 2.045.107 2.799.321.754.214 1.4.535 1.938.964.538.428.861.963 1.076 1.713.216.642.323 1.498.323 2.462 0 1.927-.43 3.212-1.399 3.854-.431.321-1.077.643-1.938.75-.754.214-1.722.214-2.799.214h-9.258v6.852h-2.261v-.214zm2.261-8.779h9.796c.646 0 1.292 0 1.723-.107.43-.108.753-.215.969-.322.215-.214.43-.428.538-.749.108-.428.215-.857.215-1.392 0-.642-.107-1.178-.215-1.499a2.071 2.071 0 00-.538-.963 2.084 2.084 0 00-.969-.536c-.431-.107-.969-.214-1.507-.214h-10.012v5.782zm17.332 8.779V99.676h2.261v6.959h9.258c1.077 0 2.046.107 2.8.321a8.062 8.062 0 011.937.857c.539.428.862.963 1.077 1.606.215.642.323 1.498.323 2.462 0 .856-.108 1.713-.323 2.355-.215.643-.538 1.178-.969 1.606-.431.429-.969.75-1.723.857-.753.214-1.507.321-2.583.321h-12.273v-.428h.215zm12.165-7.816h-9.796v5.889h10.012c.646 0 1.184 0 1.615-.107.43-.108.753-.215.968-.429.216-.214.323-.428.431-.856.108-.428.215-.857.215-1.499 0-.642-.107-1.071-.215-1.499-.108-.428-.323-.642-.538-.856-.216-.215-.538-.322-.969-.429-.538-.107-1.077-.214-1.723-.214zm9.905 8.137h-2.046V99.676h2.261v17.237h-.215zm-17.871-91.11V8.885h2.261v6.852h2.476l11.411-6.852h3.984l-13.027 7.923 12.704 9.314h-3.984l-11.196-8.136h-2.476v8.136h-2.261v-.32h.108zm-60.826 0V8.885h18.948v17.237h-2.261V11.134h-14.319v14.99h-2.368v-.322zm-43.278 0V8.885h2.369v7.173h14.318V8.886h2.261v17.237h-2.261v-7.708H93.661v7.708H91.4v-.32h-.108zm-12.057-9.958l6.89-6.959h3.122l-8.182 8.137 9.15 9.1h-3.014l-7.966-7.922-7.967 7.922h-3.122l9.15-9.1-8.073-8.137h3.014l6.998 6.96zm-26.591 9.957V8.886h15.394v2.248H54.904v4.925h12.811v2.249h-12.81v5.567h13.133v2.248H52.644v-.32zM32.942 8.886h18.302v2.248h-8.182v14.99h-2.26v-14.99h-8.075V8.886h.215zm175.48 59.42c-.861.75-2.153 1.07-3.768 1.07h-1.938c-.968 0-1.83-.106-2.583-.427-.754-.322-1.292-.75-1.83-1.285-.323-.428-.539-.75-.646-1.178-.108-.428-.216-.856-.216-1.392v-.32h2.261v.32c0 .215 0 .536.108.75l.323.642c.215.321.538.535.969.643.43.107.969.214 1.507.214h1.938c.646 0 1.076-.107 1.507-.214.43-.108.753-.429.969-.75.107-.214.323-.428.323-.642.107-.214.107-.428.107-.75v-.32h2.261v.32c0 .643-.108 1.285-.323 1.82-.108.643-.43 1.071-.969 1.5zm5.383 1.392v16.916h-2.261v-15.31h-.215l-13.242 15.417h-3.229V69.377h2.26v15.096l12.919-15.096h3.768v.321zm-21.208 0v16.916h-2.261v-15.31h-.215l-13.242 15.417h-3.23V69.377h2.261v15.096l12.919-15.096h3.768v.321zM156.532 86.4V69.377h14.964v2.248H158.9v14.99h-2.26V86.4h-.108zm-2.261-5.782c0 2.356-.431 3.962-1.399 4.818-.862.75-2.477 1.178-4.845 1.178h-7.321c-1.184 0-2.153-.107-3.014-.321-.861-.214-1.507-.535-2.045-.964-.539-.428-.862-1.07-1.185-1.82-.215-.75-.323-1.713-.323-2.783v-5.14c0-1.07.108-2.034.323-2.89a4.138 4.138 0 011.077-1.927c.538-.536 1.184-.857 2.045-1.07.862-.215 1.831-.322 3.015-.322h7.32c2.261 0 3.768.428 4.737 1.178.539.428.969 1.177 1.184 2.034.216.856.431 1.82.431 2.998v5.031zm-2.261-5.246c0-.749-.107-1.498-.215-2.034-.108-.535-.323-.856-.538-1.07-.216-.215-.646-.429-1.185-.536a9.954 9.954 0 00-2.045-.214h-7.321c-.753 0-1.507.107-2.045.214s-.969.322-1.292.643c-.323.214-.538.642-.646 1.07a9.53 9.53 0 00-.215 1.927v5.354c0 1.499.323 2.462.861 2.997.323.215.646.429 1.184.536.539.107 1.292.214 2.046.214h7.32c.862 0 1.615-.107 2.153-.214.539-.107.969-.322 1.185-.536.215-.214.43-.535.538-1.07a9.53 9.53 0 00.215-1.927v-5.354zm-22.177-3.64h-13.134V82.44a9.61 9.61 0 01-.215 1.927c-.216.535-.431.963-.862 1.392-.323.32-.753.535-1.291.749-.539.107-1.077.214-1.723.214h-.969v-2.248h1.184c.216 0 .431 0 .646-.107.216-.107.323-.107.431-.214.215-.215.323-.322.431-.643.107-.321.107-.642.107-.963v-13.17h17.656v17.238h-2.261V71.732zm-19.163 8.886c0 2.356-.538 3.962-1.399 4.818-.862.75-2.476 1.178-4.845 1.178h-7.32c-1.185 0-2.154-.107-3.015-.321-.861-.214-1.507-.535-2.045-.964-.539-.428-.862-1.07-1.077-1.82-.215-.75-.323-1.713-.323-2.783v-5.14c0-1.07.108-2.034.323-2.89a4.136 4.136 0 011.077-1.927c.538-.536 1.184-.857 2.045-1.07.861-.215 1.83-.322 3.015-.322h7.32c2.261 0 3.768.428 4.737 1.178.538.428.969 1.177 1.184 2.034.216.856.431 1.82.431 2.998v5.031h-.108zm-2.368-5.246c0-.749-.108-1.498-.215-2.034-.108-.535-.323-.856-.539-1.07-.215-.215-.646-.429-1.184-.536a9.954 9.954 0 00-2.045-.214h-7.321a10.9 10.9 0 00-2.046.214c-.538.107-.968.322-1.291.643-.323.214-.539.642-.646 1.07a9.556 9.556 0 00-.216 1.927v5.354c0 1.499.323 2.462.862 2.997.323.215.645.429 1.184.536.538.107 1.292.214 2.045.214h7.321c.861 0 1.615-.107 2.153-.214s.969-.322 1.184-.536c.216-.214.431-.535.539-1.07a9.601 9.601 0 00.215-1.927v-5.354zM69.653 86.4V69.377h2.261v7.173h14.318v-7.173h2.261v17.237h-2.26v-7.709h-14.32v7.71h-2.26V86.4zM57.596 76.336l6.89-6.96h3.122l-8.182 8.138 9.15 9.1h-3.121l-7.967-7.923-7.967 7.923H46.4l9.151-9.1-7.966-8.137h3.014l6.998 6.959zM31.005 86.4V69.377h15.287v2.248H33.265v4.925h12.811v2.25h-12.81v5.567h13.133v2.248H31.005V86.4zm-19.81-17.023h18.302v2.248h-8.181v14.99h-2.261v-14.99H10.98v-2.248h.216zm181.94-29.978v16.916l9.151-9.1-8.074-8.137h3.014l6.89 6.96 6.89-6.96h3.122l-8.182 8.137 9.151 9.1h-3.014l-7.967-7.922-7.967 7.922h-5.382v-15.31h-.216L177.31 56.422h-3.23V39.185h2.261v15.096l12.918-15.096h3.768v.214h.108zM153.41 56.101V39.185h2.261v6.852h2.476l11.411-6.852h3.984l-12.919 7.923 12.703 9.314h-3.983l-11.089-8.137h-2.476v8.137h-2.26v-.32h-.108zm-1.723-5.674c0 2.355-.538 3.961-1.399 4.818-.861.749-2.476 1.177-4.845 1.177h-7.32c-1.185 0-2.153-.107-3.015-.32-.861-.215-1.507-.536-2.045-.964-.539-.429-.861-1.071-1.077-1.82-.215-.75-.323-1.714-.323-2.784v-5.14c0-1.07.108-2.033.323-2.89a4.137 4.137 0 011.077-1.927c.538-.535 1.184-.857 2.045-1.07.862-.215 1.83-.322 3.015-.322h7.32c2.261 0 3.768.428 4.737 1.178.538.428.969 1.178 1.184 2.034.216.857.431 1.82.431 2.998v5.032h-.108zm-2.368-5.353c0-.75-.108-1.5-.215-2.035-.108-.535-.323-.856-.539-1.07-.215-.214-.646-.428-1.184-.536a10.897 10.897 0 00-2.045-.214h-7.321c-.754 0-1.507.107-2.045.214-.539.108-.969.322-1.292.643-.323.214-.539.642-.646 1.07a9.523 9.523 0 00-.216 1.928v5.353c0 1.499.323 2.462.862 2.998.323.214.646.428 1.184.535.538.107 1.292.214 2.045.214h7.321c.861 0 1.615-.107 2.153-.214s.969-.321 1.184-.535c.216-.215.431-.536.539-1.071a9.601 9.601 0 00.215-1.927v-5.353zm-26.268 11.348h-7.321c-1.184 0-2.153-.107-3.014-.32-.862-.215-1.507-.643-2.046-1.072-.538-.428-.861-1.177-1.076-1.927-.216-.75-.323-1.713-.323-2.89v-4.818c0-1.07.107-2.035.323-2.891.215-.856.646-1.499 1.184-2.034.538-.535 1.184-.857 2.045-1.07.862-.215 1.831-.322 2.907-.322h7.321c4.198 0 6.351 1.713 6.351 5.032v.321h-2.26v-.321c0-.964-.216-1.606-.754-2.034a3.604 3.604 0 00-1.292-.535 9.7 9.7 0 00-1.938-.215h-7.32c-1.615 0-2.692.322-3.338.857-.323.321-.538.642-.646 1.178a10.785 10.785 0 00-.215 2.034v4.818c0 .749.108 1.498.215 2.034.108.535.323.856.646 1.178.323.214.646.428 1.185.642.538.107 1.292.214 2.045.214h7.321c.753 0 1.399-.107 1.938-.214.538-.107.968-.321 1.184-.535.323-.215.538-.536.646-.857.107-.321.215-.75.215-1.285v-.32h2.261v.32c0 .857-.108 1.606-.323 2.249-.215.642-.646 1.177-1.184 1.605-.539.429-1.185.75-1.938.964a19.9 19.9 0 01-2.799.214zm-16.041 0h-2.046V39.185h2.261v17.237h-.215zm-9.904-8.137h-9.797v5.889H97.32c.646 0 1.184 0 1.615-.107.43-.107.753-.214.969-.428.215-.215.323-.429.43-.857.108-.428.216-.856.216-1.499 0-.642-.108-1.07-.216-1.499-.107-.428-.323-.642-.538-.856-.215-.214-.538-.321-.969-.428-.538-.108-1.077-.215-1.722-.215zM84.94 56.101V39.185h2.261v6.852h9.259c1.076 0 2.045.107 2.799.321a8.12 8.12 0 011.938.857c.43.428.861.963 1.076 1.606.215.642.323 1.499.323 2.462 0 .857-.108 1.713-.323 2.356-.215.642-.538 1.177-.969 1.605a2.93 2.93 0 01-1.722.857c-.754.214-1.507.321-2.584.321H84.94v-.32zM65.778 48.5v5.674h11.519c1.076 0 1.938-.214 2.368-.642.215-.215.43-.536.538-.857.108-.428.216-.856.216-1.392a4 4 0 00-.215-1.285c-.108-.32-.323-.642-.646-.749-.323-.214-.646-.321-1.077-.428-.43-.107-.969-.214-1.507-.214H65.778V48.5zm-2.261 7.6V39.185H76.22c2.046 0 3.553.428 4.522 1.178 1.076.75 1.615 1.927 1.615 3.426 0 .642-.108 1.178-.216 1.606-.107.535-.323.856-.646 1.284l-.646.643h-.107c.107.107.323.214.43.321.539.428.97.857 1.292 1.499.323.642.43 1.285.43 2.141 0 .964-.107 1.713-.43 2.356-.215.642-.646 1.284-1.184 1.605-.538.429-1.076.643-1.938.857-.753.214-1.615.321-2.691.321H63.517v-.32zm2.26-14.668v4.925h11.09c.537 0 1.076 0 1.506-.107.431-.107.646-.214.862-.321.215-.214.43-.428.538-.75a3.81 3.81 0 00.215-1.177c0-.428-.108-.857-.215-1.178-.108-.321-.215-.535-.43-.75a2.084 2.084 0 00-.97-.535c-.43-.107-.969-.214-1.507-.214H65.778v.107zm112.501-24.41h9.797c.646 0 1.292 0 1.723-.107.43-.107.753-.214.969-.321.215-.214.43-.428.538-.75.108-.32.215-.856.215-1.392 0-.642-.107-1.177-.215-1.498a2.073 2.073 0 00-.538-.964 2.092 2.092 0 00-.969-.535c-.431-.107-.969-.214-1.508-.214h-10.012v5.781zm-2.26 8.78V8.885h11.519c1.076 0 1.938.107 2.799.321.754.214 1.4.536 1.938.964.538.428.861.963 1.076 1.713.216.642.323 1.499.323 2.462 0 1.927-.43 3.212-1.399 3.855-.431.32-1.077.642-1.938.75-.754.213-1.723.213-2.799.213h-9.259v6.852h-2.26v-.214zM160.085 19.7h9.043l-4.522-8.673-4.521 8.673zm-3.553 6.423h-2.369c3.015-5.781 6.029-11.455 8.936-17.237h3.014c3.015 5.782 6.029 11.456 8.936 17.237h-2.692l-2.153-4.175h-11.411l-2.153 4.175h-.108zm-24.223-5.995c0 2.355-.538 3.961-1.399 4.818-.862.75-2.476 1.177-4.845 1.177h-7.321c-1.184 0-2.153-.107-3.014-.32-.861-.215-1.507-.536-2.045-.964-.539-.429-.862-1.071-1.077-1.82-.215-.75-.323-1.713-.323-2.784v-5.246c0-1.07.108-2.034.323-2.89a4.13 4.13 0 011.077-1.928c.538-.535 1.184-.857 2.045-1.07.861-.215 1.83-.322 3.014-.322h7.321c2.261 0 3.768.428 4.737 1.178.538.428.969 1.177 1.184 2.034.216.857.431 1.82.431 2.998v5.139h-.108zm-2.261-5.353c0-.75-.107-1.5-.215-2.034-.108-.536-.323-.857-.538-1.071-.216-.214-.646-.428-1.184-.536a9.973 9.973 0 00-2.046-.214h-7.321c-.753 0-1.507.107-2.045.214-.538.108-.969.322-1.292.643-.323.214-.538.642-.646 1.07a9.602 9.602 0 00-.215 1.928v5.353c0 1.499.323 2.462.861 2.998.323.214.646.428 1.184.535.539.107 1.292.214 2.046.214h7.32c.862 0 1.615-.107 2.154-.214.538-.107.861-.321 1.184-.535.215-.215.43-.536.538-1.071a9.53 9.53 0 00.215-1.927v-5.353zm283.461 90.896c0-.749-.108-1.498-.215-2.034-.108-.535-.323-.856-.539-1.07-.215-.214-.645-.429-1.184-.536a9.962 9.962 0 00-2.045-.214h-7.321c-1.507 0-2.691.321-3.23.857-.322.214-.538.642-.645 1.07a9.531 9.531 0 00-.216 1.927v5.354c0 .749.108 1.391.216 1.927.107.428.323.856.645 1.07.323.215.646.429 1.185.536.538.107 1.292.214 2.045.214h7.321c.861 0 1.615-.107 2.153-.214s.969-.321 1.184-.536c.215-.214.431-.535.538-1.07a9.531 9.531 0 00.216-1.927v-5.354h-.108zm2.261 5.354c0 1.177-.108 2.141-.323 2.997a4.134 4.134 0 01-1.077 1.928c-.43.428-1.076.642-1.937.856-.754.214-1.831.321-2.907.321h-7.321c-2.368 0-3.983-.428-5.06-1.285-.538-.428-.861-1.07-1.076-1.82-.216-.749-.323-1.713-.323-2.783V106.1c0-1.071.107-2.034.323-2.891a4.138 4.138 0 011.076-1.927c.969-.964 2.692-1.392 5.06-1.392h7.321c1.076 0 2.045.107 2.799.321.753.214 1.399.536 1.938.964.538.428.969 1.178 1.184 2.034.215.857.431 1.82.431 2.998v4.818h-.108zm2.045 5.674V99.783h15.395v2.248h-13.134v4.925h12.704v2.249h-12.704v7.815h-2.261v-.321zm25.73-16.916h2.046v11.884c0 1.071.215 1.82.753 2.355a3.59 3.59 0 001.292.536c.538.107 1.292.214 2.153.214h7.321c.754 0 1.399-.107 1.83-.214.538-.107.861-.321 1.184-.536.323-.214.539-.535.646-.963.108-.428.216-.857.216-1.392V99.89h2.26v11.135c0 1.177-.107 2.141-.43 2.89-.216.857-.646 1.499-1.185 1.927-.43.429-1.076.75-1.937.857-.754.214-1.723.321-2.799.321h-7.321c-1.077 0-2.046-.107-2.907-.321-.861-.214-1.507-.535-1.938-.964-.538-.428-.968-1.07-1.184-1.927a10.272 10.272 0 01-.43-2.89V99.783h.43zm35.527 17.237h-7.321c-2.368 0-3.983-.535-5.06-1.499a4.32 4.32 0 01-1.076-1.82c-.216-.749-.323-1.606-.323-2.676v-5.032c0-1.178.107-2.142.323-2.891.215-.857.646-1.499 1.076-2.034.539-.536 1.185-.857 2.046-1.07.861-.215 1.83-.322 3.014-.322h7.428c2.046 0 3.661.428 4.737 1.285 1.077.856 1.615 2.141 1.615 3.747v.214h-2.261v-.321c0-.857-.323-1.606-.861-2.034a3.6 3.6 0 00-1.292-.536 9.709 9.709 0 00-1.938-.214h-7.428c-.861 0-1.507.107-2.045.214-.539.107-.969.322-1.185.643-.538.535-.861 1.713-.861 3.319v5.032c0 .749.108 1.391.216 1.927.107.428.323.856.645 1.07.323.215.646.429 1.185.536.538.107 1.292.214 2.045.214h7.428c.754 0 1.508-.107 2.046-.214.538-.107.861-.321 1.076-.429.323-.214.539-.642.646-1.07a9.523 9.523 0 00.216-1.927v-.321h-8.397v-2.249h10.55v1.606c0 1.285-.108 2.463-.323 3.319-.215.964-.538 1.606-.969 2.141-.431.536-1.077.857-1.938 1.071-.753.214-1.83.321-3.014.321zm10.658-14.882v5.889h10.55c1.077 0 1.938-.214 2.369-.75.323-.214.538-.642.645-1.07.108-.428.216-.964.216-1.606 0-.75-.323-1.285-.861-1.82-.323-.214-.646-.428-.969-.536-.431-.107-.862-.214-1.292-.214H489.73v.107zm0 8.03v6.852h-2.261V99.89h12.38c1.077 0 1.938.107 2.692.321.753.214 1.399.643 1.938 1.071.43.428.861.963 1.076 1.606.216.642.323 1.285.323 2.034 0 .535-.107 1.071-.215 1.606-.108.428-.323.856-.646 1.285-.215.214-.431.535-.646.749-.108.107-.323.214-.538.321.107.107.215.107.323.214.215.215.538.536.753.857.431.749.646 1.713.646 2.998v4.175h-2.261v-4.389c0-.429 0-.857-.107-1.178-.108-.321-.215-.535-.431-.749-.215-.215-.43-.322-.646-.429-.323-.107-.646-.107-1.076-.107H489.73v-.107zM509 117.02h-2.368l8.935-17.237h3.015a871.15 871.15 0 018.935 17.237h-2.691l-2.153-4.175h-11.412l-2.153 4.175H509zm3.553-6.424h9.043l-4.522-8.672-4.521 8.672zm-99.044-71.304v2.249h-8.182V56.53h-2.261V41.54h-8.074v-2.248h18.517zm101.305 5.889c0-1.606-.216-2.57-.754-3.105-.215-.214-.646-.428-1.184-.535a9.957 9.957 0 00-2.046-.214h-7.32c-1.507 0-2.692.32-3.23.856-.323.214-.538.642-.646 1.07a9.602 9.602 0 00-.215 1.928v5.353c0 1.499.323 2.462.861 2.998.323.214.646.428 1.184.535.539.107 1.292.214 2.046.214h7.32c.862 0 1.615-.107 2.154-.214.538-.107.861-.321 1.184-.535.215-.214.43-.536.538-1.07a9.53 9.53 0 00.215-1.928V45.18h-.107zm39.294 0c0-1.606-.215-2.57-.753-3.105-.216-.214-.646-.428-1.185-.535a9.954 9.954 0 00-2.045-.214h-7.321c-1.507 0-2.691.32-3.229.856-.323.214-.539.642-.646 1.07a9.523 9.523 0 00-.216 1.928v5.353c0 1.499.323 2.462.862 2.998.323.214.646.428 1.184.535.538.107 1.292.214 2.045.214h7.321c.861 0 1.615-.107 2.153-.214s.969-.321 1.184-.535c.216-.214.431-.536.539-1.07a9.603 9.603 0 00.215-1.928V45.18h-.108zM398.222 77.62h9.797c.646 0 1.291 0 1.722-.107.431-.107.754-.214.969-.321.215-.215.431-.429.538-.75a4.71 4.71 0 00.216-1.392 4.93 4.93 0 00-.216-1.499 2.065 2.065 0 00-.538-.963 2.082 2.082 0 00-.969-.535c-.431-.107-.969-.215-1.507-.215h-10.012v5.782zm21.746 2.784h9.044l-4.522-8.673-4.522 8.673zm18.302-8.566v5.889h10.55c.539 0 1.077-.107 1.4-.214.431-.107.754-.321.969-.535.323-.215.538-.643.646-1.071a6.48 6.48 0 00.215-1.606c0-.321-.108-.75-.215-.964-.108-.32-.323-.535-.646-.75-.323-.213-.646-.427-.969-.534-.431-.107-.861-.215-1.292-.215H438.27zm-23.361-32.547h15.394v2.249h-13.134v4.925h12.704v2.248h-12.704v5.567h13.134v2.248h-15.394V39.293zm31.22 17.344h-7.321c-2.368 0-3.983-.428-4.952-1.391-.538-.429-.861-1.178-1.076-1.927-.216-.75-.323-1.713-.323-2.891v-4.818c0-1.07.107-2.034.323-2.89.215-.857.646-1.5 1.076-2.035.538-.535 1.184-.856 2.046-1.07.861-.215 1.83-.322 2.906-.322h7.321c4.199 0 6.352 1.713 6.352 5.032v.321h-2.261v-.32c0-.429-.108-.857-.215-1.178a2.326 2.326 0 00-.539-.857c-.646-.535-1.722-.75-3.229-.75h-7.321a9.98 9.98 0 00-2.046.215c-.538.107-.968.32-1.184.642-.538.535-.861 1.606-.861 3.32v4.603c0 1.606.323 2.57.861 3.212.323.214.646.428 1.184.642.539.107 1.292.214 2.046.214h7.321c1.507 0 2.583-.214 3.122-.642.323-.214.538-.535.646-.857.107-.32.215-.75.215-1.284v-.322h2.261v.322c0 .856-.108 1.606-.323 2.14-.216.643-.646 1.178-1.185 1.607-.538.428-1.184.75-1.937.963-.862.215-1.83.322-2.907.322zm8.828-17.344h2.261v7.173h14.318v-7.173h2.261V56.53h-2.261v-7.708h-14.318v7.709h-2.261v-17.24zm20.993 0h4.306l12.488 14.454V39.292h2.261V56.53h-3.014l-13.242-15.417h-.538V56.53h-2.261V39.293zm41.124 11.242c0 2.355-.538 3.961-1.399 4.818-.431.428-1.077.642-1.938.856-.753.214-1.83.322-2.907.322h-7.32c-2.369 0-3.983-.429-5.06-1.285-.538-.429-.861-1.07-1.077-1.82-.215-.75-.323-1.713-.323-2.784V45.5c0-1.07.108-2.033.323-2.89a4.138 4.138 0 011.077-1.927c.969-.963 2.691-1.392 5.06-1.392h7.32c2.261 0 3.768.428 4.737 1.178.539.428.969 1.178 1.185 2.034.215.857.43 1.82.43 2.998v5.032h-.108zm2.261-11.242h2.261v14.99h12.596v2.248h-14.964V39.291h.107zm52.644 17.237h-7.32c-2.369 0-3.984-.535-5.06-1.498a4.318 4.318 0 01-1.077-1.82c-.215-.75-.323-1.606-.323-2.677v-5.032c0-1.178.108-2.141.323-2.89.215-.857.646-1.5 1.077-2.035.969-.963 2.691-1.499 4.952-1.499h7.428c4.199 0 6.352 1.713 6.352 5.032v.321h-2.368v-.32c0-.43-.108-.857-.216-1.179a1.662 1.662 0 00-.646-.856 3.6 3.6 0 00-1.292-.535 9.698 9.698 0 00-1.937-.214h-7.429c-.861 0-1.507.107-2.045.214s-.969.32-1.184.642c-.323.321-.431.642-.646 1.178a10.695 10.695 0 00-.216 2.034v5.032c0 .75.108 1.392.216 1.927.107.428.323.857.646 1.07.323.215.646.429 1.184.536a9.953 9.953 0 002.045.214h7.429c.753 0 1.507-.107 2.045-.214s.861-.321 1.077-.428c.323-.214.538-.643.646-1.07a9.603 9.603 0 00.215-1.928v-.214h-8.29v-2.248h10.551v1.605c0 1.285-.108 2.463-.323 3.32-.216.963-.539 1.605-.969 2.14-.431.536-1.077.857-1.938 1.071-.754.214-1.723.322-2.907.322zm16.687-9.956l7.213-7.174h3.122l-9.151 9.1v8.137h-2.476V48.5l-9.151-9.1h3.122l7.321 7.173zm-32.297 3.96c0 2.356-.538 3.962-1.399 4.819-.431.428-1.077.642-1.938.856-.754.214-1.83.322-2.907.322h-7.321c-2.368 0-3.983-.429-5.059-1.285-.539-.429-.862-1.07-1.077-1.82-.215-.75-.323-1.713-.323-2.784V45.5c0-1.07.108-2.033.323-2.89a4.13 4.13 0 011.077-1.927c.968-.963 2.691-1.392 5.059-1.392h7.321c2.261 0 3.768.428 4.737 1.178.538.428.969 1.178 1.184 2.034.215.857.431 1.82.431 2.998v5.032h-.108zM396.069 9.1h2.261v7.174h14.318V9.1h2.261v17.238h-2.261v-7.709H398.33v7.709h-2.261V9.1zm22.069 0h2.261v17.238h-2.261V9.1zm19.271 17.238h-7.321c-2.368 0-3.983-.536-5.06-1.5a4.326 4.326 0 01-1.076-1.82c-.216-.749-.323-1.605-.323-2.676V15.31c0-1.178.107-2.141.323-2.89.215-.857.646-1.5 1.076-2.035.969-.963 2.692-1.499 4.952-1.499h7.429c4.198 0 6.352 1.713 6.352 5.032v.322h-2.369v-.322c0-.428-.108-.856-.215-1.177a1.667 1.667 0 00-.646-.857 3.606 3.606 0 00-1.292-.535 9.7 9.7 0 00-1.938-.214h-7.428a9.98 9.98 0 00-2.046.214c-.538.107-.969.321-1.184.642-.323.321-.43.643-.646 1.178a10.784 10.784 0 00-.215 2.034v5.14c0 .748.108 1.39.215 1.926.108.429.323.857.646 1.07.323.215.646.43 1.184.536a9.98 9.98 0 002.046.214h7.428c.754 0 1.507-.107 2.046-.214.538-.107.861-.321 1.076-.428.323-.214.538-.642.646-1.07a9.53 9.53 0 00.215-1.928v-.321h-8.289V17.88h10.55v1.606c0 1.284-.107 2.462-.323 3.319-.215.963-.538 1.605-.969 2.14-.43.536-1.076.857-1.937 1.071-.646.215-1.723.322-2.907.322zM445.806 9.1h2.261v7.174h14.318V9.1h2.261v17.238h-2.261v-7.709h-14.318v7.709h-2.261V9.1zm-49.845 60.491h11.519c1.077 0 1.938.107 2.799.321.754.214 1.4.536 1.938.964.538.428.861.963 1.077 1.713.215.642.323 1.499.323 2.462 0 .964-.108 1.713-.323 2.356a3.195 3.195 0 01-1.077 1.499c-.43.32-1.076.642-1.938.75-.753.213-1.722.213-2.799.213h-9.258v6.852h-2.261v-17.13zm18.086 17.237c3.015-5.781 6.029-11.455 8.936-17.237h3.014c3.015 5.782 6.029 11.456 8.936 17.237h-2.692l-2.153-4.175h-11.304l-2.153 4.175h-2.584zm24.223-6.852v6.852h-2.261V69.591h12.381c1.076 0 1.938.107 2.691.321.754.214 1.4.643 1.938 1.071.431.428.861.964 1.077 1.606a6.21 6.21 0 01.323 2.034c0 .535-.108 1.07-.216 1.606-.107.535-.323.857-.646 1.285-.215.214-.43.428-.646.75l-.538.32c.108.108.215.108.323.215.215.214.538.535.754.856.215.428.43.857.538 1.285.108.535.215 1.07.215 1.606v4.175h-2.261V82.44c0-.428 0-.857-.107-1.178-.108-.321-.216-.535-.431-.75-.215-.213-.43-.32-.646-.428-.323-.107-.646-.107-1.076-.107H438.27zm18.086-10.385h2.261v7.173h2.476l10.551-7.173h4.09l-12.272 8.244 12.488 8.993h-3.984l-10.765-7.815h-2.476v7.815h-2.261V69.591h-.108z" fill="#1A1A18"/></svg>